<svg width="1200" height="457" viewBox="0 0 1200 457" fill="none" xmlns="http://www.w3.org/2000/svg">
<rect width="1200" height="457" rx="60" fill="black"/>
<path d="M803.436 338.27H752.774C692.016 338.27 642.639 288.893 642.639 228.135C642.639 167.377 692.016 118 752.774 118C813.531 118 862.909 167.377 862.909 228.135V336.067H818.855V228.135C818.855 191.607 789.302 162.054 752.774 162.054C716.246 162.054 686.693 191.607 686.693 228.135C686.693 264.663 716.246 294.216 752.774 294.216H803.436V338.27Z" fill="white"/>
<path d="M554.532 336.067H510.478V228.135C510.478 167.377 559.855 118 620.613 118V162.054C584.084 162.054 554.532 191.607 554.532 228.135V336.067Z" fill="white"/>
<path d="M356.288 338.27C295.53 338.27 246.153 288.893 246.153 228.135C246.153 167.377 295.53 118 356.288 118C417.046 118 466.423 167.377 466.423 228.135V250.162H339.768V206.108H418.514C409.336 180.41 384.923 162.054 356.288 162.054C319.76 162.054 290.207 191.607 290.207 228.135C290.207 264.663 319.76 294.216 356.288 294.216C378.315 294.216 398.873 283.203 411.172 264.847L447.7 289.443C427.325 319.914 393.183 338.27 356.288 338.27Z" fill="white"/>
<path d="M195.489 326.706V314.591H202.097V336.068H197.324L181.355 324.503V335.517H174.93V315.142H179.519L195.489 326.706Z" fill="white"/>
<path d="M202.096 284.303V292.563L189.614 302.475H202.096V309.45H163.916V302.475H186.861L174.746 293.114V284.67L188.146 295.683L202.096 284.303Z" fill="white"/>
<path d="M202.832 267.047C202.832 270.901 201.914 274.022 200.262 276.592C198.61 279.162 196.224 280.997 193.287 282.098L189.432 275.674C193.287 274.205 195.306 271.269 195.306 266.863C195.306 264.844 194.939 263.192 194.205 262.274C193.471 261.356 192.553 260.806 191.268 260.806C189.983 260.806 188.882 261.356 188.147 262.641C187.413 263.926 186.679 265.945 185.761 269.066C185.211 270.718 184.66 272.186 184.293 273.471C183.742 274.573 183.191 275.858 182.274 276.959C181.356 278.06 180.254 278.978 178.97 279.712C177.685 280.263 176.216 280.63 174.381 280.63C170.893 280.63 168.14 279.345 166.12 276.959C164.101 274.573 163 271.636 163 268.148C163 265.028 163.734 262.274 165.203 260.072C166.671 257.685 168.874 255.85 171.444 254.565L175.115 260.806C171.811 262.274 170.159 264.844 170.159 268.148C170.159 269.8 170.526 270.901 171.26 271.819C171.994 272.737 172.912 273.104 174.013 273.104C175.298 273.104 176.216 272.553 176.95 271.636C177.685 270.718 178.419 268.699 179.337 265.945C179.704 264.844 180.071 263.926 180.254 263.376C180.438 262.825 180.805 261.907 181.172 260.989C181.539 259.888 181.906 259.154 182.274 258.603C182.641 258.052 183.191 257.318 183.742 256.584C184.293 255.85 185.027 255.299 185.578 254.932C186.312 254.565 187.046 254.198 187.964 254.014C188.882 253.831 189.983 253.647 191.084 253.647C194.572 253.647 197.325 254.932 199.528 257.502C201.914 259.704 202.832 263.008 202.832 267.047Z" fill="white"/>
<path d="M174.93 230.516V222.99L202.28 232.902C206.135 234.37 209.072 236.206 210.724 238.592C212.56 240.978 213.294 243.915 213.11 247.403H206.502C206.502 245.567 206.135 244.099 205.217 242.814C204.299 241.713 203.015 240.795 201.179 240.244L174.93 251.258V243.548L193.286 236.39L174.93 230.516Z" fill="white"/>
<path d="M174.016 204.09C174.016 201.153 174.934 198.583 176.953 196.747C178.972 194.728 181.726 193.811 185.213 193.811H201.917V200.786H185.947C184.112 200.786 182.827 201.336 181.726 202.254C180.808 203.172 180.257 204.457 180.257 206.109C180.257 207.945 180.808 209.413 181.909 210.514C183.01 211.616 184.662 212.166 187.049 212.166H201.733V219.142H174.934V212.166H178.054C175.301 210.514 174.016 207.761 174.016 204.09Z" fill="white"/>
<path d="M202.835 174.355C202.835 178.393 201.366 181.88 198.613 184.634C195.86 187.387 192.372 188.672 188.334 188.672C184.295 188.672 180.808 187.387 178.054 184.634C175.485 181.88 174.016 178.576 174.016 174.355C174.016 171.785 174.567 169.215 175.852 167.012C177.137 164.809 178.789 163.157 180.991 162.056L184.479 168.114C183.378 168.664 182.46 169.398 181.726 170.683C180.991 171.785 180.808 173.07 180.808 174.355C180.808 176.374 181.542 178.209 182.827 179.678C184.295 181.146 185.947 181.697 188.15 181.697C190.353 181.697 192.005 180.963 193.473 179.678C194.942 178.209 195.492 176.557 195.492 174.355C195.492 172.886 195.125 171.601 194.575 170.5C194.024 169.398 193.106 168.481 192.005 167.93L195.492 161.873C197.695 163.157 199.347 164.809 200.632 167.012C202.284 169.398 202.835 171.785 202.835 174.355Z" fill="white"/>
<path d="M1036.55 162.051H928.989V336.064H1036.55V162.051Z" fill="white"/>
</svg>
