<?xml version="1.0" encoding="utf-8"?>
<!-- Generator: Adobe Illustrator 27.1.1, SVG Export Plug-In . SVG Version: 6.00 Build 0)  -->
<svg version="1.1" id="Layer_1" xmlns="http://www.w3.org/2000/svg" xmlns:xlink="http://www.w3.org/1999/xlink" x="0px" y="0px"
	 viewBox="0 0 476 120" style="enable-background:new 0 0 476 120;" xml:space="preserve">
<g>
	<g>
		<path d="M348.9,120h-27.6c-33.1,0-60-26.9-60-60s26.9-60,60-60s60,26.9,60,60v58.8h-24V60c0-19.9-16.1-36-36-36
			c-19.9,0-36,16.1-36,36s16.1,36,36,36h27.6V120z"/>
	</g>
	<g>
		<path d="M213.3,118.8h-24V60c0-33.1,26.9-60,60-60v24c-19.9,0-36,16.1-36,36V118.8z"/>
	</g>
	<g>
		<path d="M105.3,120c-33.1,0-60-26.9-60-60s26.9-60,60-60s60,26.9,60,60v12h-69V48h42.9c-5-14-18.3-24-33.9-24
			c-19.9,0-36,16.1-36,36s16.1,36,36,36c12,0,23.2-6,29.9-16l19.9,13.4C144,110,125.4,120,105.3,120z"/>
	</g>
	<g>
		<path d="M17.7,113.7v-6.6h3.6v11.7h-2.6l-8.7-6.3v6H6.5v-11.1H9L17.7,113.7z"/>
		<path d="M21.3,90.6v4.5l-6.8,5.4h6.8v3.8H0.5v-3.8H13l-6.6-5.1v-4.6l7.3,6L21.3,90.6z"/>
		<path d="M21.7,81.2c0,2.1-0.5,3.8-1.4,5.2c-0.9,1.4-2.2,2.4-3.8,3l-2.1-3.5c2.1-0.8,3.2-2.4,3.2-4.8c0-1.1-0.2-2-0.6-2.5
			c-0.4-0.5-0.9-0.8-1.6-0.8c-0.7,0-1.3,0.3-1.7,1c-0.4,0.7-0.8,1.8-1.3,3.5c-0.3,0.9-0.6,1.7-0.8,2.4c-0.3,0.6-0.6,1.3-1.1,1.9
			c-0.5,0.6-1.1,1.1-1.8,1.5c-0.7,0.3-1.5,0.5-2.5,0.5c-1.9,0-3.4-0.7-4.5-2c-1.1-1.3-1.7-2.9-1.7-4.8c0-1.7,0.4-3.2,1.2-4.4
			c0.8-1.3,2-2.3,3.4-3l2,3.4c-1.8,0.8-2.7,2.2-2.7,4c0,0.9,0.2,1.5,0.6,2c0.4,0.5,0.9,0.7,1.5,0.7c0.7,0,1.2-0.3,1.6-0.8
			c0.4-0.5,0.8-1.6,1.3-3.1c0.2-0.6,0.4-1.1,0.5-1.4c0.1-0.3,0.3-0.8,0.5-1.3c0.2-0.6,0.4-1,0.6-1.3c0.2-0.3,0.5-0.7,0.8-1.1
			c0.3-0.4,0.7-0.7,1-0.9c0.4-0.2,0.8-0.4,1.3-0.5c0.5-0.1,1.1-0.2,1.7-0.2c1.9,0,3.4,0.7,4.6,2.1C21.2,77.2,21.7,79,21.7,81.2z"/>
		<path d="M6.5,61.3v-4.1l14.9,5.4c2.1,0.8,3.7,1.8,4.6,3.1c1,1.3,1.4,2.9,1.3,4.8h-3.6c0-1-0.2-1.8-0.7-2.5
			c-0.5-0.6-1.2-1.1-2.2-1.4L6.5,72.6v-4.2l10-3.9L6.5,61.3z"/>
		<path d="M6,46.9c0-1.6,0.5-3,1.6-4c1.1-1.1,2.6-1.6,4.5-1.6h9.1v3.8h-8.7c-1,0-1.7,0.3-2.3,0.8c-0.5,0.5-0.8,1.2-0.8,2.1
			c0,1,0.3,1.8,0.9,2.4c0.6,0.6,1.5,0.9,2.8,0.9h8v3.8H6.5v-3.8h1.7C6.7,50.4,6,48.9,6,46.9z"/>
		<path d="M21.7,30.7c0,2.2-0.8,4.1-2.3,5.6c-1.5,1.5-3.4,2.2-5.6,2.2s-4.1-0.7-5.6-2.2C6.8,34.8,6,33,6,30.7c0-1.4,0.3-2.8,1-4
			c0.7-1.2,1.6-2.1,2.8-2.7l1.9,3.3c-0.6,0.3-1.1,0.7-1.5,1.4c-0.4,0.6-0.5,1.3-0.5,2c0,1.1,0.4,2.1,1.1,2.9
			c0.8,0.8,1.7,1.1,2.9,1.1c1.2,0,2.1-0.4,2.9-1.1c0.8-0.8,1.1-1.7,1.1-2.9c0-0.8-0.2-1.5-0.5-2.1c-0.3-0.6-0.8-1.1-1.4-1.4l1.9-3.3
			c1.2,0.7,2.1,1.6,2.8,2.8C21.4,28,21.7,29.3,21.7,30.7z"/>
	</g>
	<rect x="417.3" y="24" width="58.6" height="94.8"/>
</g>
</svg>
